<svg xmlns="http://www.w3.org/2000/svg" viewBox="0 0 798 109" width="798" height="109" role="img" aria-label="Stockma"><path fill="#182F4F" fill-rule="evenodd" d="M32.54,106.95C23.98,105.61 16.42,103.28 9.25,99.78C4.23,97.33 3.00,96.26 3.00,94.38C3.00,91.44 9.09,78.94 10.19,79.62C10.63,79.89 11.00,79.73 11.00,79.25C11.00,78.77 14.50,80.12 18.79,82.25C39.25,92.43 65.00,89.94 65.00,77.79C65.00,71.55 60.03,68.14 46.27,64.93C32.36,61.69 21.00,58.03 21.00,56.80C21.00,56.18 20.72,55.95 20.38,56.29C19.48,57.18 12.90,53.62 10.31,50.85C6.35,46.59 4.05,40.00 4.02,32.84C3.98,20.28 11.63,9.90 24.49,5.09C37.11,0.37 54.28,-0.05 68.85,4.01C75.97,6.00 84.00,9.48 84.00,10.58C84.00,10.88 83.56,10.84 83.01,10.51C82.46,10.17 82.27,10.53 82.57,11.33C83.33,13.30 77.32,26.32 76.03,25.52C75.46,25.17 75.00,25.31 75.00,25.82C75.00,26.34 72.31,25.68 69.03,24.35C60.72,21.00 52.73,19.69 44.37,20.30C33.62,21.09 28.00,24.86 28.00,31.29C28.00,38.21 31.05,39.97 51.84,45.08C60.29,47.16 68.04,49.63 69.09,50.59C70.15,51.54 71.29,52.04 71.63,51.70C72.51,50.83 77.96,53.73 81.34,56.86C85.44,60.66 87.94,66.13 88.64,72.81C90.27,88.47 80.46,100.89 62.76,105.56C55.85,107.39 39.99,108.11 32.54,106.95ZM239.93,107.00C227.66,105.05 215.95,99.17 207.89,90.88C183.43,65.77 191.11,21.91 222.49,7.41C233.36,2.39 242.34,0.67 254.00,1.37C270.70,2.39 280.89,6.74 291.59,17.42C302.98,28.79 307.95,42.28 306.72,58.50C306.08,66.96 304.12,74.19 302.70,73.31C302.14,72.97 302.00,73.19 302.38,73.81C303.52,75.64 298.43,84.42 292.56,90.76C286.57,97.24 276.66,102.96 267.00,105.53C259.88,107.42 247.00,108.12 239.93,107.00ZM369.50,107.32C355.60,105.55 344.39,100.46 335.43,91.86C328.90,85.59 322.07,74.31 323.46,72.07C323.82,71.48 323.69,71.00 323.18,71.00C321.57,71.00 320.00,62.49 320.00,53.74C320.00,39.81 324.98,27.36 334.35,17.84C341.03,11.05 346.56,7.66 356.39,4.31C363.47,1.89 366.02,1.54 376.50,1.54C386.06,1.54 389.93,1.98 395.54,3.73C402.88,6.02 412.81,11.87 416.86,16.29L419.21,18.86 L414.46,23.94C411.84,26.74 409.47,28.81 409.20,28.53C408.92,28.26 408.15,28.78 407.49,29.69C405.65,32.20 402.78,32.16 400.00,29.58C395.97,25.84 392.47,23.94 386.81,22.44C379.44,20.48 373.34,20.65 365.58,23.05C356.92,25.72 349.27,33.00 346.01,41.67C342.92,49.84 343.48,62.24 347.27,69.61C350.65,76.19 358.68,83.40 364.96,85.49C376.87,89.44 393.27,86.30 400.15,78.74C403.28,75.29 405.34,75.90 412.51,82.41L419.38,88.63 L415.05,93.33C410.30,98.48 397.22,105.68 394.50,104.64C393.62,104.30 393.14,104.41 393.43,104.89C394.52,106.65 377.65,108.36 369.50,107.32ZM128.76,64.25L128.50,22.50 L111.75,22.23L95.00,21.95 L95.00,12.48L95.00,3.00 L140.50,3.00L186.00,3.00 L186.00,12.50L186.00,22.00 L169.50,22.00L153.00,22.00 L153.00,63.00C153.00,95.13 152.73,104.00 151.75,104.02C150.92,104.03 151.00,104.35 152.00,105.00C153.01,105.66 149.53,105.97 141.26,105.98L129.02,106.00 L128.76,64.25ZM436.02,54.50L435.97,3.00 L446.73,3.02C452.66,3.02 458.13,3.43 458.89,3.91C460.02,4.63 460.20,8.43 459.84,24.65C459.60,35.57 459.65,45.78 459.95,47.34C460.47,50.05 461.47,49.15 481.50,27.96C493.05,15.74 502.88,5.09 503.34,4.30C504.45,2.40 528.67,2.69 529.40,4.61C529.66,5.27 524.83,11.15 518.68,17.66C512.53,24.18 504.36,32.88 500.53,37.00C496.69,41.13 493.25,44.40 492.88,44.28C491.76,43.93 490.84,49.10 491.81,50.35C492.30,50.98 497.05,57.05 502.35,63.84C507.66,70.63 511.76,76.57 511.46,77.06C511.17,77.54 511.89,78.51 513.07,79.22C516.13,81.05 532.11,102.01 531.37,103.22C531.02,103.77 531.36,104.62 532.12,105.10C532.95,105.62 528.05,105.98 519.94,105.98L506.37,106.00 L503.07,101.59C501.25,99.16 499.93,96.88 500.13,96.52C500.33,96.16 499.77,95.45 498.87,94.95C497.98,94.45 492.97,88.52 487.73,81.77C476.85,67.75 474.84,65.69 472.89,66.61C472.13,66.97 468.95,70.02 465.84,73.39L460.18,79.50 L459.65,91.50C459.36,98.10 459.02,104.06 458.89,104.75C458.73,105.66 455.62,106.00 447.37,106.00L436.07,106.00 L436.02,54.50ZM265.09,84.45C276.91,78.34 284.08,64.61 282.64,50.84C281.75,42.35 278.61,35.87 272.64,30.23C265.97,23.91 259.71,21.50 250.00,21.50C244.99,21.50 240.84,22.14 237.50,23.43C231.86,25.60 222.82,33.60 220.98,38.05C220.31,39.67 219.44,41.00 219.04,41.00C218.13,41.00 217.54,47.64 217.70,56.16C218.00,71.86 229.83,85.25 244.91,86.92C251.78,87.68 261.04,86.55 265.09,84.45Z"/><path fill="#337082" fill-rule="evenodd" d="M29.50,107.59C16.93,105.12 1.00,98.30 1.00,95.38C1.00,94.18 8.48,77.18 9.43,76.24C9.64,76.03 11.71,77.05 14.03,78.52C22.02,83.56 30.76,86.22 41.15,86.76C52.97,87.37 57.05,86.67 60.97,83.37C66.69,78.56 63.91,71.43 55.24,68.62C52.63,67.78 45.06,65.75 38.41,64.10C23.67,60.46 16.59,57.43 10.97,52.36C5.01,46.99 3.04,42.18 3.04,33.00C3.04,24.23 4.89,19.34 10.59,13.03C20.52,2.04 42.75,-2.76 63.68,1.57C71.78,3.24 80.85,6.45 82.50,8.22C83.20,8.98 82.91,9.05 81.50,8.48C65.92,2.17 52.53,0.02 39.25,1.71C22.31,3.86 12.73,9.31 7.26,19.88C4.52,25.16 4.00,27.25 4.02,32.84C4.05,40.00 6.35,46.59 10.31,50.85C12.90,53.62 19.48,57.18 20.38,56.29C20.72,55.95 21.00,56.18 21.00,56.80C21.00,58.03 32.36,61.69 46.27,64.93C60.03,68.14 65.00,71.55 65.00,77.79C65.00,89.94 39.25,92.43 18.79,82.25C14.50,80.12 11.00,78.77 11.00,79.25C11.00,79.73 10.63,79.89 10.19,79.62C9.09,78.94 3.00,91.44 3.00,94.38C3.00,96.27 4.25,97.34 9.41,99.88C19.95,105.07 29.82,107.22 43.50,107.33C62.07,107.47 73.07,103.91 81.32,95.09C91.11,84.62 91.48,67.73 82.14,57.66C79.20,54.50 72.59,50.75 71.63,51.70C71.29,52.04 70.15,51.54 69.09,50.59C68.04,49.63 60.29,47.16 51.84,45.08C31.05,39.97 28.00,38.21 28.00,31.29C28.00,24.86 33.62,21.09 44.37,20.30C52.73,19.69 60.72,21.00 69.03,24.35C72.31,25.68 75.00,26.34 75.00,25.82C75.00,25.31 75.46,25.17 76.03,25.52C77.23,26.26 83.20,13.69 82.78,11.30C82.63,10.43 83.06,9.51 83.75,9.27C85.69,8.59 85.29,10.36 81.25,20.06C78.52,26.63 77.09,28.94 76.00,28.61C75.17,28.36 71.72,26.99 68.31,25.56C49.28,17.60 29.00,20.63 29.00,31.45C29.00,36.01 33.03,39.28 41.17,41.33C44.65,42.21 52.15,44.08 57.84,45.48C70.64,48.63 78.14,52.11 83.05,57.17C89.62,63.94 91.71,74.87 88.50,85.67C85.73,95.02 75.97,103.26 63.65,106.65C56.11,108.73 37.90,109.23 29.50,107.59ZM236.50,107.42C232.65,106.57 226.25,104.31 222.28,102.41C188.73,86.35 181.83,41.27 209.00,15.64C236.08,-9.91 285.11,-3.06 301.74,28.58C314.58,53.00 307.40,83.37 285.25,98.35C271.95,107.35 252.48,110.97 236.50,107.42ZM362.77,107.46C335.98,101.43 318.76,80.74 318.82,54.65C318.86,38.86 323.42,27.56 334.11,16.75C355.18,-4.54 394.59,-5.78 416.17,14.16L421.48,19.06 L412.99,26.91L404.50,34.75 L400.62,31.26C398.49,29.34 394.21,26.59 391.12,25.16C383.39,21.56 371.05,21.46 363.23,24.93C356.01,28.13 348.89,36.05 346.55,43.50C342.80,55.40 346.37,70.73 354.57,77.93C361.77,84.25 365.47,85.50 377.00,85.50C388.83,85.50 393.21,83.94 400.19,77.25L403.87,73.72 L407.19,76.50C409.01,78.02 412.93,81.49 415.89,84.19L421.28,89.11 L417.89,92.69C412.82,98.04 403.46,103.77 396.07,106.07C387.23,108.82 371.70,109.47 362.77,107.46ZM267.00,105.53C276.66,102.96 286.57,97.24 292.56,90.76C298.43,84.42 303.52,75.64 302.38,73.81C302.00,73.19 302.14,72.97 302.70,73.31C304.12,74.19 306.08,66.96 306.72,58.50C307.95,42.28 302.98,28.79 291.59,17.42C280.89,6.74 270.70,2.39 254.00,1.37C242.34,0.67 233.36,2.39 222.49,7.41C195.86,19.71 185.28,54.52 200.18,80.77C210.23,98.48 230.69,108.71 253.50,107.44C257.90,107.19 263.98,106.33 267.00,105.53ZM386.44,106.88C390.58,106.26 393.73,105.37 393.43,104.89C393.14,104.41 393.62,104.30 394.50,104.64C397.22,105.68 410.30,98.48 415.05,93.33L419.38,88.63 L412.51,82.41C405.34,75.90 403.28,75.29 400.15,78.74C393.27,86.30 376.87,89.44 364.96,85.49C358.68,83.40 350.65,76.19 347.27,69.61C343.48,62.24 342.92,49.84 346.01,41.67C349.27,33.00 356.92,25.72 365.58,23.05C378.57,19.03 391.22,21.43 400.00,29.58C402.78,32.16 405.65,32.20 407.49,29.69C408.15,28.78 408.92,28.26 409.20,28.53C409.47,28.81 411.84,26.74 414.46,23.94L419.21,18.86 L416.86,16.29C412.81,11.87 402.88,6.02 395.54,3.73C389.93,1.98 386.06,1.54 376.50,1.54C366.02,1.54 363.47,1.89 356.39,4.31C346.56,7.66 341.03,11.05 334.35,17.84C324.98,27.36 320.00,39.81 320.00,53.74C320.00,62.49 321.57,71.00 323.18,71.00C323.69,71.00 323.82,71.48 323.46,72.07C322.07,74.31 328.90,85.59 335.43,91.86C348.46,104.37 366.88,109.79 386.44,106.88ZM127.67,106.33C127.30,105.97 127.00,87.07 127.00,64.33L127.00,23.00 L110.50,23.00L94.00,23.00 L94.00,12.50L94.00,2.00 L140.50,2.00L187.00,2.00 L187.00,12.50L187.00,23.00 L170.50,23.00L154.00,23.00 L154.00,65.00L154.00,107.00 L141.17,107.00C134.11,107.00 128.03,106.70 127.67,106.33ZM434.39,105.58C434.09,104.80 433.99,81.29 434.17,53.33L434.50,2.50 L447.71,2.22L460.93,1.94 L461.21,25.57C461.37,38.56 461.16,49.40 460.75,49.66C459.73,50.28 459.65,47.60 459.97,24.64C460.20,8.64 459.98,4.60 458.88,3.90C458.12,3.42 452.66,3.02 446.73,3.02L435.97,3.00 L436.02,54.50L436.07,106.00 L447.37,106.00C455.62,106.00 458.73,105.66 458.89,104.75C459.02,104.06 459.36,98.10 459.65,91.50L460.18,79.50 L465.84,73.39C468.95,70.02 472.13,66.97 472.89,66.61C474.84,65.69 476.85,67.75 487.73,81.77C492.97,88.52 497.98,94.45 498.87,94.95C499.77,95.45 500.33,96.16 500.13,96.52C499.93,96.88 501.25,99.16 503.07,101.59L506.37,106.00 L519.94,105.98C528.05,105.98 532.95,105.62 532.12,105.10C531.36,104.62 531.02,103.77 531.37,103.22C532.11,102.01 516.13,81.05 513.07,79.22C511.89,78.51 511.17,77.54 511.46,77.06C511.76,76.57 507.66,70.63 502.35,63.84C497.05,57.05 492.30,50.98 491.81,50.35C490.84,49.10 491.76,43.93 492.88,44.28C493.25,44.40 496.69,41.13 500.53,37.00C504.36,32.88 512.53,24.18 518.68,17.66C524.83,11.15 529.66,5.27 529.40,4.61C529.08,3.78 525.17,3.35 516.72,3.21L504.50,3.02 L493.70,14.76C478.71,31.05 461.18,49.22 464.50,45.03C466.01,43.12 475.62,32.66 485.86,21.78L504.47,2.00 L519.24,2.00C527.36,2.00 534.00,2.25 534.00,2.56C534.00,2.87 524.66,13.03 513.25,25.13C501.84,37.23 492.36,47.52 492.20,47.98C492.03,48.44 495.88,53.92 500.75,60.16C522.43,87.91 536.00,105.71 536.00,106.42C536.00,106.74 529.28,107.00 521.07,107.00L506.14,107.00 L490.43,87.00C481.79,76.00 474.40,67.00 474.02,67.00C473.63,67.00 470.55,69.89 467.16,73.41L461.00,79.83 L461.00,93.41L461.00,107.00 L447.97,107.00C437.64,107.00 434.82,106.71 434.39,105.58ZM546.00,54.50L546.00,2.00 L557.36,2.00L568.72,2.00 L587.78,33.58C606.18,64.07 606.90,65.08 608.29,62.83C609.09,61.55 617.54,47.34 627.08,31.25L644.43,2.00 L655.71,2.00L667.00,2.00 L667.00,54.50L667.00,107.00 L654.51,107.00L642.03,107.00 L641.76,77.43L641.50,47.87 L627.06,72.43L612.62,97.00 L606.96,97.00C602.81,97.00 600.91,96.53 599.82,95.25C599.00,94.29 592.29,83.41 584.92,71.09L571.50,48.68 L571.23,77.84L570.97,107.00 L558.48,107.00L546.00,107.00 L546.00,54.50ZM676.00,106.71C676.00,106.51 677.35,103.57 679.00,100.16C680.65,96.76 682.00,93.78 682.00,93.55C682.00,93.32 685.54,85.34 689.86,75.82C694.19,66.29 703.47,45.78 710.48,30.22L723.24,1.95 L736.81,2.22L750.37,2.50 L759.00,21.50C782.91,74.14 792.49,95.02 795.12,100.22C796.70,103.37 798.00,106.18 798.00,106.47C798.00,106.76 791.76,107.00 784.14,107.00L770.27,107.00 L767.73,101.25C766.34,98.09 764.19,93.13 762.97,90.23L760.74,84.97 L736.29,85.23L711.85,85.50 L707.55,96.00L703.25,106.50 L689.62,106.78C682.13,106.93 676.00,106.90 676.00,106.71ZM152.00,105.00C151.00,104.35 150.92,104.03 151.75,104.02C152.73,104.00 153.00,95.13 153.00,63.00L153.00,22.00 L169.50,22.00L186.00,22.00 L186.00,12.50L186.00,3.00 L140.50,3.00L95.00,3.00 L95.00,12.48L95.00,21.95 L111.75,22.23L128.50,22.50 L128.76,64.25L129.02,106.00 L141.26,105.98C149.53,105.97 153.01,105.66 152.00,105.00ZM244.91,86.92C229.83,85.25 218.00,71.86 217.70,56.16C217.54,47.64 218.13,41.00 219.04,41.00C219.44,41.00 220.31,39.67 220.98,38.05C222.82,33.60 231.86,25.60 237.50,23.43C240.84,22.14 244.99,21.50 250.00,21.50C259.71,21.50 265.97,23.91 272.64,30.23C288.99,45.68 285.02,74.15 265.09,84.45C261.04,86.55 251.78,87.68 244.91,86.92ZM264.80,82.94C271.83,79.43 275.26,75.78 278.87,68.00C282.06,61.11 282.41,50.21 279.68,42.33C271.81,19.59 238.89,15.03 224.61,34.70C220.28,40.66 218.57,46.56 218.73,54.99C218.88,62.62 220.77,68.47 224.98,74.30C230.87,82.47 238.38,85.89 250.59,85.96C257.66,85.99 259.45,85.62 264.80,82.94ZM752.00,64.59C752.00,64.13 736.90,28.65 736.52,28.22C736.34,28.01 727.69,48.19 721.30,63.75C720.90,64.72 724.30,65.00 736.39,65.00C744.98,65.00 752.00,64.82 752.00,64.59Z"/></svg>
